HIERARCHY
ROOT SpineBase
{
  OFFSET 0.000000 0.000000 0.000000
  CHANNELS 6 Xposition Yposition Zposition Zrotation Xrotation Yrotation
  JOINT SpineMid
  {
    OFFSET 0.000000 26.695868 0.000000
    CHANNELS 3 Zrotation Xrotation Yrotation
    JOINT SpineShoulder
    {
      OFFSET -0.094764 19.906715 -0.752683
      CHANNELS 3 Zrotation Xrotation Yrotation
      JOINT Neck
      {
        OFFSET -0.029733 6.642777 -0.524970
        CHANNELS 3 Zrotation Xrotation Yrotation
        JOINT Head
        {
          OFFSET 2.371459 12.080233 0.053049
          CHANNELS 3 Zrotation Xrotation Yrotation
          End Site
          {
            OFFSET 0 0 0
          }
        }
      }
      JOINT ShoulderLeft
      {
        OFFSET -11.607393 -2.597289 -8.279496
        CHANNELS 3 Zrotation Xrotation Yrotation
        JOINT ElbowLeft
        {
          OFFSET -2.706234 -20.706569 -3.195960
          CHANNELS 3 Zrotation Xrotation Yrotation
          JOINT WristLeft
          {
            OFFSET 3.680504 -20.101878 -5.468185
            CHANNELS 3 Zrotation Xrotation Yrotation
            JOINT HandLeft
            {
              OFFSET 1.848367 -5.501597 -0.582778
              CHANNELS 3 Zrotation Xrotation Yrotation
              JOINT HandTipLeft
              {
                OFFSET 2.199912 -5.551912 -2.079069
                CHANNELS 3 Zrotation Xrotation Yrotation
                End Site
                {
                  OFFSET 0 0 0
                }
              }
              JOINT ThumbLeft
              {
                OFFSET 2.207171 -0.191748 -0.311824
                CHANNELS 3 Zrotation Xrotation Yrotation
                End Site
                {
                  OFFSET 0 0 0
                }
              }
            }
          }
        }
      }
      JOINT ShoulderRight
      {
        OFFSET 11.702446 -3.070973 3.439110
        CHANNELS 3 Zrotation Xrotation Yrotation
        JOINT ElbowRight
        {
          OFFSET 2.071931 -20.649622 1.180856
          CHANNELS 3 Zrotation Xrotation Yrotation
          JOINT WristRight
          {
            OFFSET 3.304474 -20.401309 -3.997156
            CHANNELS 3 Zrotation Xrotation Yrotation
            JOINT HandRight
            {
              OFFSET -0.411909 -9.879510 -0.944389
              CHANNELS 3 Zrotation Xrotation Yrotation
              JOINT HandTipRight
              {
                OFFSET -1.381277 -4.033757 -1.082158
                CHANNELS 3 Zrotation Xrotation Yrotation
                End Site
                {
                  OFFSET 0 0 0
                }
              }
              JOINT ThumbRight
              {
                OFFSET -3.236232 0.837329 -1.507165
                CHANNELS 3 Zrotation Xrotation Yrotation
                End Site
                {
                  OFFSET 0 0 0
                }
              }
            }
          }
        }
      }
    }
  }
  JOINT HipLeft
  {
    OFFSET -5.059702 1.112932 -5.547658
    CHANNELS 3 Zrotation Xrotation Yrotation
    JOINT KneeLeft
    {
      OFFSET -5.357392 -29.704874 -1.300476
      CHANNELS 3 Zrotation Xrotation Yrotation
      JOINT AnkleLeft
      {
        OFFSET -3.158419 -32.383375 5.248178
        CHANNELS 3 Zrotation Xrotation Yrotation
        JOINT FootLeft
        {
          OFFSET 3.311970 -6.510464 -0.887236
          CHANNELS 3 Zrotation Xrotation Yrotation
          End Site
          {
            OFFSET 0 0 0
          }
        }
      }
    }
  }
  JOINT HipRight
  {
    OFFSET 4.702184 0.368458 -0.629370
    CHANNELS 3 Zrotation Xrotation Yrotation
    JOINT KneeRight
    {
      OFFSET -0.178078 -28.608460 2.727924
      CHANNELS 3 Zrotation Xrotation Yrotation
      JOINT AnkleRight
      {
        OFFSET -3.495522 -35.209626 6.025834
        CHANNELS 3 Zrotation Xrotation Yrotation
        JOINT FootRight
        {
          OFFSET 3.829947 -1.909134 -9.730991
          CHANNELS 3 Zrotation Xrotation Yrotation
          End Site
          {
            OFFSET 0 0 0
          }
        }
      }
    }
  }
}
MOTION
Frames: 5
Frame Time: 0.033333
20.490143 68.868465 369.601767 -0.000000 0.000000 -26.740131 -0.000000 0.000000 26.740131 -0.000000 0.000000 0.000000 -0.000000 0.000000 0.000000 0.000000 0.000000 0.000000 -0.000000 0.000000 0.000000 -0.000000 0.000000 0.000000 -0.000000 0.000000 0.000000 -0.000000 0.000000 0.000000 0.000000 0.000000 0.000000 0.000000 0.000000 0.000000 -0.000000 0.000000 0.000000 -0.000000 0.000000 0.000000 -0.000000 0.000000 0.000000 -0.000000 0.000000 0.000000 0.000000 0.000000 0.000000 0.000000 0.000000 0.000000 -0.000000 0.000000 26.740131 -0.000000 0.000000 0.000000 -0.000000 0.000000 0.000000 0.000000 0.000000 0.000000 -0.000000 0.000000 26.740131 -0.000000 0.000000 0.000000 -0.000000 0.000000 0.000000 0.000000 0.000000 0.000000
20.664545 68.907394 369.494924 0.175918 0.022861 -26.098797 -0.147924 -0.097920 26.098636 -0.000000 0.000000 0.000000 -0.000000 0.000000 0.000000 0.000000 0.000000 0.000000 -0.000000 0.000000 0.000000 -1.872581 -0.167315 0.477679 -1.641826 1.639623 0.444222 -0.202526 -2.817435 -0.111165 0.000000 0.000000 0.000000 0.000000 0.000000 0.000000 0.291762 -1.491001 -0.129002 -1.119992 0.527218 0.157564 3.068495 -0.314542 -0.187463 3.504710 1.405301 -1.561678 0.000000 0.000000 0.000000 0.000000 0.000000 0.000000 -0.147924 -0.097920 26.098636 -0.000000 0.000000 0.000000 0.328026 7.997547 3.962341 0.000000 0.000000 0.000000 -0.147924 -0.097920 26.098636 -0.000000 0.000000 0.000000 -3.078051 -5.659181 6.013759 0.000000 0.000000 0.000000
20.831851 68.939355 369.401738 0.342865 0.025863 -25.519771 -0.298272 -0.171052 25.519249 -0.000000 0.000000 0.000000 -0.000000 0.000000 0.000000 0.000000 0.000000 0.000000 -0.774724 -0.444341 0.174596 -2.797205 0.142517 0.758856 -2.781319 2.889399 0.803690 -0.593609 -5.121660 -0.303314 0.000000 0.000000 0.000000 0.000000 0.000000 0.000000 0.536697 -2.795535 -0.236324 -2.051290 0.873181 0.297154 5.425517 -0.535492 -0.332038 6.667807 2.457657 -3.040515 0.000000 0.000000 0.000000 0.000000 0.000000 0.000000 -0.298272 -0.171052 25.519249 -0.000000 0.000000 0.000000 0.292072 14.558128 7.224048 0.000000 0.000000 0.000000 -0.833495 -1.055280 25.434716 0.863138 0.568596 0.074521 -5.626979 -11.697977 12.026119 0.000000 0.000000 0.000000
20.992063 68.964348 369.322207 0.500755 0.009006 -25.002856 -0.450023 -0.219811 25.001953 -0.000000 0.000000 0.000000 -0.153774 0.816901 -0.158549 0.000000 0.000000 0.000000 -1.161226 -0.623499 0.254282 -3.934750 0.216136 1.092042 -3.479956 3.786736 1.046424 -1.059619 -6.931612 -0.526213 0.000000 0.000000 0.000000 0.000000 0.000000 0.000000 0.735249 -3.909693 -0.324456 -2.792650 1.036478 0.402663 7.153196 -0.687180 -0.429707 9.321527 3.236771 -4.321909 0.000000 0.000000 0.000000 0.000000 0.000000 0.000000 -0.450023 -0.219811 25.001953 -0.497680 -0.920906 0.005155 0.700519 19.982231 9.462603 0.000000 0.000000 0.000000 -1.234359 -1.450867 24.878095 1.229531 0.786687 0.103982 -7.337313 -17.065751 17.278745 0.000000 0.000000 0.000000
21.145180 68.982373 369.256332 0.649515 -0.027686 -24.548060 -0.602313 -0.244658 24.546931 -0.000000 0.000000 0.000000 -0.216248 1.068687 -0.206747 0.000000 0.000000 0.000000 -1.547231 -0.773873 0.329276 -4.896519 0.294821 1.391350 -3.797177 4.365825 1.156795 -1.506839 -8.276462 -0.735339 0.000000 0.000000 0.000000 0.000000 0.000000 0.000000 0.887829 -4.830937 -0.395524 -3.343447 1.016804 0.461288 8.310962 -0.790568 -0.473456 11.379005 3.821702 -5.331135 0.000000 0.000000 0.000000 0.000000 0.000000 0.000000 -1.209911 -0.972499 24.651670 0.256673 -0.738336 -0.100803 0.931732 22.418805 10.497397 0.000000 0.000000 0.000000 -1.620457 -1.762879 24.386747 1.554333 0.962035 0.129296 -8.211147 -20.728706 21.064142 0.000000 0.000000 0.000000
